<?xml version="1.0" encoding="utf-8"?>
<!-- Generator: Adobe Illustrator 25.4.1, SVG Export Plug-In . SVG Version: 6.00 Build 0)  -->
<svg version="1.1" id="Layer_1" xmlns="http://www.w3.org/2000/svg" xmlns:xlink="http://www.w3.org/1999/xlink" x="0px" y="0px"
	 viewBox="0 0 500 500" style="enable-background:new 0 0 500 500;" xml:space="preserve">
<style type="text/css">
	.st0{fill:#FF8A5B;}
</style>
<path class="st0" d="M250.4,0C112.3,0,0.4,111.9,0.4,250s111.9,250,250,250s250-111.9,250-250C500.4,112,388.5,0,250.4,0z
	 M323.9,151.7c0,0-24.9,0-34.7,0c-12.3,0-14.8,5-14.8,17.7c0,10.6,0,30.6,0,30.6h49.5l-4.8,53.8h-44.8v160.7h-64.2v-160h-33.4V200
	h33.4c0,0,0-7.8,0-42.9c0-40.2,21.6-61.2,69.3-61.2c7.8,0,44.4,0,44.4,0v55.8H323.9z"/>
</svg>
